<?xml version="1.0" encoding="utf-8"?>
<!-- Официальный исходник щита ВШП: https://api.vshp.online/system/press_kit/item/20/VSHP_SHIELD_ORIGINAL.svg -->
<svg version="1.1" xmlns="http://www.w3.org/2000/svg" viewBox="0 0 163.7 167">
  <path fill="#8D282E" d="M81.8,167c-0.4,0-0.8-0.2-1-0.4c-10.2-10.7-24.8-14.8-39-18.9C21.7,142,2.7,136.5,0,113.1v-10.4
	c0-0.6,0.4-1.1,0.9-1.3c0.5-0.2,1.2-0.1,1.6,0.4c9.4,10.2,23.3,13.7,36.8,17.2c16.4,4.2,33.4,8.5,40.8,25.2
	c-2.7-46-24-50.9-44.7-55.6C18.7,84.7,2.9,81.1,0,55.6l0-6.9c0-0.6,0.4-1.1,0.9-1.3c0.5-0.2,1.2-0.1,1.6,0.4
	c9.4,10.2,23.3,13.7,36.8,17.2c16.4,4.2,33.4,8.5,40.8,25.2c-2.7-46-24-50.9-44.7-55.6C18.7,30.6,2.9,27,0,1.6
	C-0.1,1,0.2,0.5,0.7,0.2c0.5-0.3,1.1-0.2,1.6,0.1c10.1,8,19.8,8.1,30,8.2c15.2,0.1,30.9,0.3,49.5,25.2c18.6-25,34.3-25.1,49.5-25.2
	c10.2-0.1,19.9-0.2,30-8.2c0.4-0.3,1-0.4,1.5-0.2c0.5,0.2,0.8,0.7,0.8,1.3v111.7c-2.7,23.4-21.7,28.8-41.8,34.6
	c-14.1,4-28.7,8.2-39,18.9C82.6,166.8,82.2,167,81.8,167z"/>
</svg>
